# xmcd
#
# Track frame offsets:
#	150
#	16369
#	40362
#	65497
#	90044
#	113200
#	144429
#	175017
#	194309
#	222495
#	248125
#	271431
#
# Disc length: 3900 seconds
#
# Revision: 2
# Processed by: cddbd v1.5.2PL0 Copyright (c) Steve Scherf et al.
# Submitted via: audiograbber 1.83.01
#
DISCID=a50f3a0c
DTITLE=STOLZES HERZ - Zurück in mir
DYEAR=2000
DGENRE=Darkwave
TTITLE0=Intro
TTITLE1=Liebe ist Krieg
TTITLE2=Letzter Ausweg Tod
TTITLE3=Nur ein Freund
TTITLE4=Kalter Regen
TTITLE5=Egal
TTITLE6=Das letzte Mal
TTITLE7=Spiegel meines Lebens
TTITLE8=Gefängnis der Gefühle
TTITLE9=Die Rose
TTITLE10=Weihnachtslied
TTITLE11=Das letzte was ich sehen will
EXTD=
EXTT0=
EXTT1=
EXTT2=
EXTT3=
EXTT4=
EXTT5=
EXTT6=
EXTT7=
EXTT8=
EXTT9=
EXTT10=
EXTT11=
PLAYORDER=
